<svg xmlns="http://www.w3.org/2000/svg" viewBox="0 0 512 512">
  <defs>
    <radialGradient id="bg" cx="50%" cy="42%" r="70%">
      <stop offset="0%" stop-color="#2a1812"/>
      <stop offset="100%" stop-color="#160c08"/>
    </radialGradient>
  </defs>
  <rect width="512" height="512" fill="url(#bg)"/>
  <g transform="translate(256 256)">
    <g fill="#7a2e2e"><ellipse cx="0" cy="-108" rx="17" ry="52" transform="rotate(15)"/><ellipse cx="0" cy="-108" rx="17" ry="52" transform="rotate(45)"/><ellipse cx="0" cy="-108" rx="17" ry="52" transform="rotate(75)"/><ellipse cx="0" cy="-108" rx="17" ry="52" transform="rotate(105)"/><ellipse cx="0" cy="-108" rx="17" ry="52" transform="rotate(135)"/><ellipse cx="0" cy="-108" rx="17" ry="52" transform="rotate(165)"/><ellipse cx="0" cy="-108" rx="17" ry="52" transform="rotate(195)"/><ellipse cx="0" cy="-108" rx="17" ry="52" transform="rotate(225)"/><ellipse cx="0" cy="-108" rx="17" ry="52" transform="rotate(255)"/><ellipse cx="0" cy="-108" rx="17" ry="52" transform="rotate(285)"/><ellipse cx="0" cy="-108" rx="17" ry="52" transform="rotate(315)"/><ellipse cx="0" cy="-108" rx="17" ry="52" transform="rotate(345)"/></g>
    <g fill="#b5532f"><ellipse cx="0" cy="-120" rx="21" ry="64" transform="rotate(0)"/><ellipse cx="0" cy="-120" rx="21" ry="64" transform="rotate(30)"/><ellipse cx="0" cy="-120" rx="21" ry="64" transform="rotate(60)"/><ellipse cx="0" cy="-120" rx="21" ry="64" transform="rotate(90)"/><ellipse cx="0" cy="-120" rx="21" ry="64" transform="rotate(120)"/><ellipse cx="0" cy="-120" rx="21" ry="64" transform="rotate(150)"/><ellipse cx="0" cy="-120" rx="21" ry="64" transform="rotate(180)"/><ellipse cx="0" cy="-120" rx="21" ry="64" transform="rotate(210)"/><ellipse cx="0" cy="-120" rx="21" ry="64" transform="rotate(240)"/><ellipse cx="0" cy="-120" rx="21" ry="64" transform="rotate(270)"/><ellipse cx="0" cy="-120" rx="21" ry="64" transform="rotate(300)"/><ellipse cx="0" cy="-120" rx="21" ry="64" transform="rotate(330)"/></g>
    <g fill="#e8a04c"><ellipse cx="0" cy="-86" rx="12" ry="30" transform="rotate(15)"/><ellipse cx="0" cy="-86" rx="12" ry="30" transform="rotate(45)"/><ellipse cx="0" cy="-86" rx="12" ry="30" transform="rotate(75)"/><ellipse cx="0" cy="-86" rx="12" ry="30" transform="rotate(105)"/><ellipse cx="0" cy="-86" rx="12" ry="30" transform="rotate(135)"/><ellipse cx="0" cy="-86" rx="12" ry="30" transform="rotate(165)"/><ellipse cx="0" cy="-86" rx="12" ry="30" transform="rotate(195)"/><ellipse cx="0" cy="-86" rx="12" ry="30" transform="rotate(225)"/><ellipse cx="0" cy="-86" rx="12" ry="30" transform="rotate(255)"/><ellipse cx="0" cy="-86" rx="12" ry="30" transform="rotate(285)"/><ellipse cx="0" cy="-86" rx="12" ry="30" transform="rotate(315)"/><ellipse cx="0" cy="-86" rx="12" ry="30" transform="rotate(345)"/></g>
    <circle r="58" fill="#7a2e2e"/>
    <circle r="40" fill="#e8a04c"/>
    <circle r="15" fill="#160c08"/>
  </g>
</svg>